<?xml version="1.0" standalone="no"?>
<!DOCTYPE svg PUBLIC "-//W3C//DTD SVG 20010904//EN"
 "http://www.w3.org/TR/2001/REC-SVG-20010904/DTD/svg10.dtd">
<svg version="1.0" xmlns="http://www.w3.org/2000/svg"
 width="300.000000pt" height="300.000000pt" viewBox="0 0 300.000000 300.000000"
 preserveAspectRatio="xMidYMid meet">
<metadata>
Created by potrace 1.10, written by Peter Selinger 2001-2011
</metadata>
<g transform="translate(0.000000,300.000000) scale(0.100000,-0.100000)"
fill="#000000" stroke="none">
<path d="M1508 1742 c-10 -27 -27 -40 -93 -71 -44 -22 -95 -55 -113 -73 l-32
-34 20 -24 c18 -20 24 -22 40 -12 13 8 20 8 22 0 3 -7 18 -3 43 10 38 20 25
33 -13 14 -9 -5 -30 -6 -47 -2 l-30 6 35 31 c19 18 70 50 114 73 l79 42 104
-4 c103 -3 105 -4 129 -33 13 -16 24 -43 25 -60 0 -26 2 -27 9 -10 8 19 9 19
9 -3 1 -36 -35 -97 -76 -129 -92 -70 -217 -138 -236 -127 -7 4 -9 4 -5 -1 4
-4 1 -13 -7 -19 -9 -6 -22 -35 -30 -65 -13 -49 -56 -111 -77 -111 -9 0 20 49
38 65 12 10 36 106 29 114 -3 2 -6 -2 -9 -10 -22 -76 -39 -109 -57 -109 -12 0
-16 5 -13 15 4 8 3 27 -1 43 -7 26 -8 25 -26 -23 -23 -62 -23 -74 0 -105 15
-19 22 -22 33 -12 8 6 17 10 20 7 12 -12 59 61 75 116 16 57 20 63 61 80 62
27 182 98 216 128 91 82 109 154 56 221 -40 50 -83 64 -177 57 -70 -5 -73 -4
-74 16 -1 20 -2 19 -12 -5 -6 -16 -14 -28 -19 -28 -11 0 -10 7 3 32 6 11 8 22
5 26 -4 3 -12 -9 -18 -26z"/>
<path d="M606 1739 c-10 -15 -16 -18 -16 -9 -1 9 -10 3 -25 -15 -13 -16 -32
-39 -42 -50 -30 -34 -65 -172 -71 -277 -4 -92 -3 -100 23 -143 32 -55 76 -85
126 -85 93 0 189 146 219 332 6 40 13 85 16 101 6 29 -12 38 -19 10 -2 -10 -3
3 -2 30 1 26 -2 47 -7 47 -4 0 -8 -15 -8 -32 0 -18 -5 -40 -10 -48 -8 -12 -10
-12 -10 5 0 11 4 37 9 58 5 21 5 39 0 43 -5 3 -9 -5 -9 -18 0 -49 -53 -226
-90 -305 -42 -86 -90 -131 -129 -118 -16 5 -18 13 -14 53 8 81 39 193 82 294
l42 98 -24 26 -24 26 -17 -23z m20 -55 c-3 -8 -9 -21 -13 -31 -4 -11 -3 -14 5
-9 20 12 13 -12 -7 -26 -23 -16 -71 -208 -71 -284 0 -59 -10 -52 -16 12 -7 69
-14 67 -14 -2 0 -61 5 -70 55 -113 9 -7 14 -16 10 -19 -3 -4 -10 0 -15 8 -6 8
-10 11 -10 6 0 -4 -13 6 -29 23 -46 49 -56 112 -36 213 25 121 42 166 82 209
33 36 71 44 59 13z m176 -139 c3 -29 1 -35 -11 -30 -13 5 -14 4 -3 -6 14 -15
17 -43 3 -35 -5 4 -7 -4 -3 -16 3 -11 1 -19 -4 -16 -5 4 -8 -8 -8 -25 2 -43
-70 -182 -110 -212 -39 -30 -79 -40 -103 -26 -16 9 -15 10 10 11 48 0 128 55
113 78 -3 4 4 23 15 42 27 44 42 83 29 75 -15 -9 -12 6 9 45 10 19 27 61 37
93 10 31 19 57 20 57 1 0 4 -16 6 -35z m-148 -292 c-9 -10 -28 -23 -41 -30
-19 -10 -23 -9 -23 3 0 7 15 20 33 28 44 19 52 19 31 -1z"/>
<path d="M2405 1730 c-46 -19 -63 -54 -106 -220 -23 -91 -44 -180 -47 -197 -3
-25 -9 -33 -24 -33 -26 0 -58 -18 -58 -32 0 -12 59 -68 72 -68 4 0 8 -10 8
-21 0 -19 2 -20 17 -8 15 13 16 12 11 -8 -4 -13 -2 -23 3 -23 5 0 11 11 15 25
7 27 35 38 134 50 30 4 70 14 89 21 28 12 36 12 43 2 4 -7 8 -8 8 -2 0 5 -5
15 -12 22 -16 16 4 16 21 0 11 -11 13 -10 9 2 -2 8 -19 17 -37 21 -17 4 -35
10 -39 14 -4 4 6 5 21 1 19 -4 26 -3 22 4 -4 6 -49 10 -109 10 l-104 0 35 98
c19 53 39 112 43 129 4 18 20 66 35 107 26 71 26 74 9 95 -20 23 -28 24 -59
11z m37 -53 c2 -13 -1 -28 -8 -35 -8 -7 -11 -18 -8 -25 2 -7 -18 -82 -46 -167
-28 -84 -49 -158 -46 -165 2 -7 19 -15 38 -19 l33 -7 -30 -13 c-43 -19 -117
-28 -135 -17 -12 9 -11 14 8 34 13 14 26 40 29 58 3 19 11 52 18 74 8 22 25
87 39 144 15 57 36 116 47 132 25 35 55 38 61 6z m55 -423 c33 -9 19 -22 -32
-30 -25 -3 -45 -10 -45 -15 0 -5 -13 -9 -28 -9 -16 0 -50 -6 -75 -14 -43 -13
-57 -12 -57 4 0 9 80 30 113 30 14 0 27 6 30 14 5 13 23 20 62 25 6 0 20 -2
32 -5z"/>
<path d="M840 1665 c0 -14 5 -25 10 -25 6 0 10 -7 10 -15 0 -12 19 -15 111
-15 88 0 109 -3 102 -12 -6 -7 -43 -85 -83 -173 -40 -88 -77 -164 -81 -169
-14 -15 -11 -26 7 -26 10 0 14 -6 10 -15 -4 -11 2 -15 28 -15 l33 0 97 218
c53 119 96 223 96 230 0 36 -25 42 -184 42 l-156 0 0 -25z m274 -1 c9 -3 16
-13 16 -21 0 -13 3 -13 15 -3 21 17 19 0 -4 -53 -49 -107 -76 -168 -107 -240
-42 -99 -60 -127 -82 -126 -13 1 -14 2 -2 6 12 3 51 86 99 207 2 6 -4 5 -15
-3 -10 -8 -7 -2 8 12 18 18 25 33 21 44 -4 10 -2 14 4 10 13 -8 36 50 26 66
-3 6 -1 7 5 3 7 -4 12 -2 12 3 0 6 -4 11 -9 11 -5 0 -8 8 -7 17 1 22 -34 30
-144 32 -113 2 -86 18 33 20 51 1 96 6 102 12 11 11 9 11 29 3z"/>
<path d="M1922 1532 c-56 -87 -102 -167 -102 -176 0 -36 25 -46 119 -46 l91 0
0 -40 c0 -22 5 -40 10 -40 6 0 10 -7 10 -15 0 -10 10 -15 30 -15 30 0 30 1 30
55 l0 55 35 0 c31 0 35 3 35 25 0 14 -4 25 -10 25 -5 0 -10 7 -10 15 0 9 -9
15 -25 15 l-25 0 0 136 c0 149 -5 164 -57 164 -26 0 -38 -14 -131 -158z m148
-15 c0 -72 2 -128 5 -125 3 2 5 59 6 126 0 67 4 122 9 122 5 0 10 -59 12 -130
2 -72 -1 -130 -5 -130 -18 0 15 -39 35 -43 22 -3 22 -4 -4 -15 -24 -10 -28
-17 -29 -54 -1 -47 -4 -43 -14 16 -5 28 -9 36 -15 26 -8 -12 -10 -12 -15 0 -4
12 -23 14 -91 12 -53 -2 -91 1 -97 7 -8 8 14 11 77 11 74 0 87 2 82 15 -3 8 2
18 10 23 26 15 22 172 -4 172 -17 0 -109 -136 -99 -146 3 -3 25 28 51 67 l46
73 0 -77 0 -77 -47 -1 c-27 -1 -52 -1 -57 0 -5 1 -6 -5 -3 -13 6 -16 -16 -25
-45 -18 -20 5 -23 19 -8 42 9 13 10 13 10 0 0 -8 25 23 55 69 30 47 52 88 50
92 -3 4 2 10 11 13 9 4 14 13 10 21 -3 8 -1 15 4 15 6 0 10 6 10 13 0 19 20
36 36 30 11 -4 14 -34 14 -136z"/>
<path d="M1562 1609 c-23 -12 -42 -26 -41 -33 2 -6 -1 -27 -5 -47 -4 -20 -6
-49 -4 -65 3 -22 8 -10 22 49 10 42 22 80 28 83 5 3 42 12 81 19 l72 13 -55 1
c-37 1 -69 -6 -98 -20z"/>
<path d="M1725 1610 c10 -15 -81 -106 -156 -155 -38 -25 -69 -48 -69 -51 0
-20 133 57 188 110 53 49 78 106 46 106 -8 0 -12 -4 -9 -10z"/>
<path d="M1442 1553 c0 -10 -16 -58 -34 -106 l-34 -88 -69 -24 c-39 -12 -79
-24 -89 -26 -11 -2 -20 -12 -22 -21 -3 -22 18 -23 99 -7 46 10 55 14 46 25 -9
11 -7 14 8 14 11 0 27 8 35 18 19 21 48 81 48 97 0 7 7 26 15 41 16 31 21 94
7 94 -4 0 -9 -8 -10 -17z m-147 -253 c-11 -5 -36 -8 -55 -8 l-35 1 35 7 c19 4
44 8 55 8 20 1 20 1 0 -8z"/>
<path d="M1255 1260 l-40 -7 40 -1 c22 0 51 4 65 8 l25 8 -25 0 c-14 -1 -43
-4 -65 -8z"/>
</g>
</svg>
