<?xml version="1.0" standalone="no"?>
<!DOCTYPE svg PUBLIC "-//W3C//DTD SVG 20010904//EN"
 "http://www.w3.org/TR/2001/REC-SVG-20010904/DTD/svg10.dtd">
<svg version="1.0" xmlns="http://www.w3.org/2000/svg"
 width="500.000000pt" height="500.000000pt" viewBox="0 0 500.000000 500.000000"
 preserveAspectRatio="xMidYMid meet">
<metadata>
Created by potrace 1.16, written by Peter Selinger 2001-2019
</metadata>
<g transform="translate(0.000000,500.000000) scale(0.100000,-0.100000)"
fill="#000000" stroke="none">
<path d="M0 2500 l0 -2500 2500 0 2500 0 0 2500 0 2500 -2500 0 -2500 0 0
-2500z m1050 399 c0 -5 4 -8 8 -5 16 10 43 -52 36 -81 -13 -53 -64 -154 -74
-148 -5 3 -7 0 -5 -7 3 -7 -6 -43 -20 -78 -49 -125 -75 -250 -75 -365 0 -102
1 -106 25 -117 18 -8 31 -8 53 1 30 13 105 86 133 131 30 47 89 193 82 203 -3
6 -1 7 5 3 12 -7 17 10 14 49 -2 14 0 16 6 7 6 -9 17 14 33 68 16 53 28 79 37
75 6 -2 12 3 13 13 0 9 6 35 14 57 l13 40 -5 -60 c-10 -121 -2 -142 20 -58 13
48 15 52 15 23 -1 -19 -18 -92 -39 -162 -21 -70 -36 -134 -33 -142 6 -15 -46
-130 -99 -221 -23 -40 -25 -46 -7 -29 11 11 41 61 65 110 25 49 45 84 45 79 0
-6 -22 -55 -49 -110 -77 -157 -165 -235 -265 -235 -85 0 -166 63 -218 169 -20
41 -23 60 -22 176 0 108 5 147 28 234 44 169 85 277 86 231 1 -8 10 3 22 25
29 55 81 120 86 106 6 -18 29 -13 35 9 5 20 37 29 37 9z m3014 -20 c20 3 26
-1 26 -14 0 -9 7 -18 15 -21 8 -4 15 -16 14 -28 0 -25 -33 -109 -39 -102 -3 2
-6 -5 -6 -17 -3 -39 -85 -293 -120 -372 -68 -152 -69 -170 -16 -180 20 -4 74
-8 120 -10 104 -4 180 -45 125 -66 -13 -6 -8 -8 17 -8 26 -1 31 -4 20 -11 -8
-5 -34 -9 -58 -8 -50 2 -64 -8 -31 -21 18 -7 19 -10 6 -10 -9 -1 -26 4 -36 11
-15 9 -25 9 -43 1 -22 -11 -21 -12 12 -13 19 -1 -14 -10 -75 -20 -146 -23
-165 -29 -165 -49 0 -13 -2 -13 -9 -2 -5 8 -18 12 -30 8 -12 -3 -21 -1 -21 4
0 6 -13 15 -30 20 -16 6 -30 15 -30 20 0 5 -8 13 -17 16 -10 4 -28 17 -39 29
l-21 22 26 12 c17 9 21 14 12 18 -7 2 -17 -1 -21 -8 -8 -13 -30 -6 -30 9 0 15
49 30 87 25 29 -3 33 -2 18 5 -18 9 -17 10 10 11 17 2 33 2 36 2 9 -2 21 47
14 57 -3 5 2 28 10 51 8 23 15 52 14 64 0 12 -8 1 -19 -29 -10 -27 -19 -47
-19 -43 -1 3 30 130 69 282 68 273 69 276 111 319 28 31 47 43 60 40 12 -3 21
1 25 12 5 12 9 13 14 5 4 -6 10 -11 14 -11z m-1500 -10 c-5 -9 14 -9 72 -3
142 16 224 12 274 -15 121 -63 168 -190 107 -293 -47 -81 -162 -176 -319 -264
-78 -43 -159 -86 -178 -94 -56 -24 -57 -25 -80 -122 -26 -104 -37 -131 -51
-123 -5 4 -9 2 -9 -4 0 -21 -51 -70 -67 -64 -9 4 -19 -1 -25 -10 -7 -13 -13
-14 -33 -5 -28 13 -29 17 -13 53 7 16 17 24 27 20 9 -2 21 -1 26 3 20 13 54
81 44 87 -5 4 -9 0 -9 -7 0 -9 -3 -9 -10 2 -9 13 -12 13 -24 -2 -19 -26 -24
-22 -25 20 -1 68 -6 92 -19 92 -7 0 -10 5 -6 12 5 8 -2 9 -27 4 -19 -4 -52 -9
-74 -11 -28 -3 -21 0 25 12 36 9 59 18 52 20 -18 7 -4 23 21 23 12 0 29 5 37
11 12 9 11 10 -7 6 -31 -7 -29 9 1 17 16 4 25 15 29 36 4 16 16 50 27 74 11
25 20 48 20 52 0 10 48 134 60 156 10 17 14 58 6 58 -2 0 -37 -15 -79 -34 -74
-34 -75 -34 -81 -13 l-5 21 -24 -22 c-26 -25 -52 -29 -44 -8 3 8 -5 18 -19 25
-14 6 -22 16 -19 21 4 6 10 8 14 5 5 -2 20 6 33 18 14 13 40 35 59 50 19 15
30 27 24 27 -5 0 -32 -19 -59 -42 -48 -41 -76 -55 -76 -38 0 14 102 100 142
121 21 11 44 17 50 13 6 -4 8 -3 5 3 -8 13 38 34 58 27 9 -4 17 1 21 11 4 10
13 14 22 10 9 -3 13 -3 9 1 -9 9 47 34 74 34 10 0 23 9 29 20 6 11 13 20 16
20 3 0 2 -5 -2 -11z m-644 -79 c0 -13 7 -20 20 -20 14 0 20 -7 20 -22 0 -13
-63 -165 -141 -338 -77 -173 -149 -334 -160 -357 -18 -42 -20 -43 -65 -43 -41
0 -46 2 -41 20 4 16 0 20 -19 20 -13 0 -24 2 -24 4 0 2 25 56 55 120 30 64 55
118 55 120 0 2 23 53 51 112 78 167 129 276 129 280 0 2 -81 4 -180 4 l-180 0
0 25 c0 16 -6 25 -15 25 -10 0 -15 11 -15 35 l0 35 255 0 c248 0 255 -1 255
-20z m1560 0 c0 -13 7 -20 20 -20 19 0 20 -7 20 -235 l0 -235 35 0 c28 0 35
-4 35 -20 0 -11 7 -20 15 -20 10 0 15 -11 15 -35 l0 -35 -50 0 -50 0 0 -90 0
-90 -50 0 c-43 0 -50 3 -50 20 0 11 -7 20 -15 20 -12 0 -15 14 -15 70 l0 70
-160 0 c-153 0 -160 1 -160 20 0 11 -7 20 -15 20 -32 0 -15 56 43 146 32 49
107 166 167 261 l110 172 53 1 c45 0 52 -2 52 -20z m-2173 -32 c-3 -8 -6 -5
-6 6 -1 11 2 17 5 13 3 -3 4 -12 1 -19z m-20 -90 c-3 -8 -6 -5 -6 6 -1 11 2
17 5 13 3 -3 4 -12 1 -19z m2492 -491 c1 -5 -3 -5 -9 -2 -5 3 -10 16 -9 28 0
21 1 21 9 2 5 -11 9 -24 9 -28z m394 -34 c-13 -2 -33 -2 -45 0 -13 2 -3 4 22
4 25 0 35 -2 23 -4z m-1926 -29 c-3 -3 -12 -4 -19 -1 -8 3 -5 6 6 6 11 1 17
-2 13 -5z m-44 -11 c-7 -2 -21 -2 -30 0 -10 3 -4 5 12 5 17 0 24 -2 18 -5z
m-70 -10 c-7 -2 -19 -2 -25 0 -7 3 -2 5 12 5 14 0 19 -2 13 -5z m132 -43 c-6
-18 -9 -20 -16 -9 -13 20 -11 37 2 19 9 -12 10 -10 5 9 -3 17 -2 21 6 13 5 -5
7 -20 3 -32z m-25 -59 c-5 -11 -10 -35 -11 -53 0 -18 -3 -27 -6 -20 -2 6 -9
10 -14 6 -13 -7 -11 4 7 66 13 43 18 51 25 37 6 -11 6 -24 -1 -36z"/>
<path d="M1271 2519 c-18 -55 -31 -102 -29 -104 2 -3 19 41 37 96 18 55 31
102 29 104 -2 3 -19 -41 -37 -96z"/>
<path d="M1331 2544 c0 -11 3 -14 6 -6 3 7 2 16 -1 19 -3 4 -6 -2 -5 -13z"/>
<path d="M880 2031 c0 -33 110 -42 148 -13 23 18 22 18 -62 21 -53 1 -86 -2
-86 -8z"/>
<path d="M4076 2793 c-6 -14 -5 -15 5 -6 7 7 10 15 7 18 -3 3 -9 -2 -12 -12z"/>
<path d="M4090 2112 c0 -5 16 -9 35 -10 21 -1 33 3 30 8 -8 12 -65 13 -65 2z"/>
<path d="M3695 2090 c-8 -13 5 -13 25 0 13 8 13 10 -2 10 -9 0 -20 -4 -23 -10z"/>
<path d="M3740 2031 c0 -15 15 -21 38 -14 32 8 27 23 -8 23 -16 0 -30 -4 -30
-9z"/>
<path d="M2345 2740 c-3 -6 1 -7 9 -4 18 7 21 14 7 14 -6 0 -13 -4 -16 -10z"/>
<path d="M2650 2681 c-47 -12 -66 -22 -68 -35 -3 -14 -6 -15 -12 -6 -9 14 -30
5 -30 -13 0 -8 3 -8 9 1 7 11 10 10 15 -3 9 -25 7 -43 -3 -26 -10 15 -42 -68
-40 -103 1 -12 9 4 19 34 25 74 25 47 -1 -53 -22 -86 -30 -137 -23 -137 10 0
122 61 164 89 55 38 45 40 -18 5 -50 -28 -49 -26 71 68 108 84 174 171 146
189 -23 14 -160 9 -229 -10z m-40 -276 c0 -2 -18 -14 -40 -25 -22 -11 -40 -18
-40 -15 0 2 17 13 38 24 42 23 42 23 42 16z"/>
<path d="M2248 2183 c6 -2 18 -2 25 0 6 3 1 5 -13 5 -14 0 -19 -2 -12 -5z"/>
<path d="M3346 2525 c-104 -160 -127 -196 -132 -210 -5 -13 7 -15 80 -15 62 0
88 4 92 13 2 7 3 71 2 143 l-3 129 -39 -60z"/>
</g>
</svg>
